<svg data-v-fde0c5aa="" xmlns="http://www.w3.org/2000/svg" viewBox="0 80 300 140" class="font"><!---->
  <defs data-v-fde0c5aa=""><!----></defs>
  <rect data-v-fde0c5aa="" fill="transparent" x="0" y="0" width="300px" height="300px" class="logo-background-square"></rect>
  <defs data-v-fde0c5aa=""><!----></defs>
  <g data-v-fde0c5aa="" id="98d9cedb-a501-4779-a608-2f94f42bd7c8" fill="#15eda1" transform="matrix(8.494207993778657,0,0,8.494207993778657,38.81081087580803,79.66796007971097)">
  <path d="M2.59 9.80L4.33 5.42L6.05 9.80ZM8.50 13.30L4.33 3.12L0.14 13.30L1.20 13.30L2.23 10.71L6.41 10.71L7.43 13.30ZM10.67 8.60L10.67 4.72L12.88 4.72C13.46 4.72 13.92 4.90 14.27 5.26C14.61 5.62 14.78 6.07 14.78 6.63C14.78 7.18 14.60 7.65 14.24 8.04C13.88 8.41 13.43 8.60 12.88 8.60ZM15.76 6.65C15.76 5.83 15.47 5.14 14.88 4.59C14.30 4.05 13.59 3.78 12.74 3.78L9.69 3.78L9.69 13.30L10.67 13.30L10.67 9.53L11.81 9.53L14.60 13.30L15.92 13.30L12.99 9.53C13.73 9.48 14.36 9.21 14.88 8.73C15.47 8.18 15.76 7.48 15.76 6.65ZM26.04 10.39L24.96 10.39C24.64 11.00 24.18 11.50 23.58 11.87C22.99 12.25 22.34 12.43 21.63 12.43C20.59 12.43 19.69 12.04 18.95 11.27C18.23 10.52 17.86 9.61 17.86 8.55C17.86 7.49 18.23 6.58 18.95 5.82C19.29 5.47 19.69 5.19 20.15 4.98C20.60 4.77 21.05 4.66 21.49 4.66C21.93 4.66 22.31 4.71 22.65 4.81C23.67 5.11 24.43 5.73 24.95 6.68L26.03 6.68C25.67 5.77 25.09 5.04 24.29 4.49C23.49 3.93 22.60 3.65 21.63 3.65C20.31 3.65 19.19 4.14 18.26 5.11C17.83 5.56 17.49 6.08 17.25 6.67C17.01 7.26 16.88 7.89 16.88 8.55C16.88 9.89 17.34 11.03 18.26 11.98C19.19 12.95 20.31 13.44 21.63 13.44C22.60 13.44 23.49 13.16 24.30 12.59C25.11 12.03 25.69 11.30 26.04 10.39Z"></path>
  </g><!----><!---->
</svg>